<?xml version="1.0" encoding="utf-8"?>
<!-- Generator: Adobe Illustrator 16.0.0, SVG Export Plug-In . SVG Version: 6.00 Build 0)  -->
<!DOCTYPE svg PUBLIC "-//W3C//DTD SVG 1.1//EN" "http://www.w3.org/Graphics/SVG/1.1/DTD/svg11.dtd">
<svg version="1.1" id="Capa_1" xmlns="http://www.w3.org/2000/svg" xmlns:xlink="http://www.w3.org/1999/xlink" x="0px" y="0px"
	 width="200px" height="200px" viewBox="156 156 200 200" enable-background="new 156 156 200 200" xml:space="preserve">
<g>
	<path fill="#006699" d="M353.249,262.506l-11.577-18.261l6.867-20.494c0.93-2.797-0.229-5.869-2.783-7.332l-18.732-10.8
		l-3.445-21.339c-0.479-2.912-2.934-5.083-5.876-5.206l-21.606-0.846l-12.964-17.301c-1.768-2.362-4.969-3.147-7.614-1.875
		L256,168.336l-19.525-9.291c-2.653-1.257-5.838-0.472-7.614,1.882l-12.964,17.301l-21.606,0.846
		c-2.935,0.114-5.396,2.287-5.869,5.198l-3.445,21.34l-18.733,10.8c-2.553,1.463-3.719,4.534-2.79,7.332l6.867,20.494
		l-11.569,18.269c-1.578,2.492-1.173,5.746,0.953,7.789l15.601,14.961l-1.753,21.538c-0.236,2.949,1.624,5.64,4.451,6.463
		l20.768,5.982l8.452,19.899c1.158,2.706,4.062,4.276,6.943,3.651l21.188-4.345l16.721,13.695c1.136,0.922,2.531,1.402,3.925,1.402
		s2.782-0.48,3.925-1.402l16.722-13.695l21.188,4.345c2.873,0.609,5.792-0.938,6.942-3.651l8.452-19.899l20.769-5.982
		c2.828-0.815,4.688-3.514,4.451-6.463l-1.754-21.538l15.602-14.961C354.423,268.252,354.826,264.998,353.249,262.506z
		 M300.791,232.699l-43.373,64.979c-1.639,2.424-4.177,4.048-6.7,4.048c-2.515,0-5.327-1.411-7.118-3.208l-31.842-32.354
		c-2.172-2.211-2.172-5.792,0-8.002l7.857-8.002c2.172-2.18,5.701-2.18,7.858,0l20.722,21.05l34.174-51.201
		c1.715-2.583,5.197-3.239,7.728-1.494l9.214,6.333C301.851,226.602,302.506,230.13,300.791,232.699z"/>
</g>
</svg>
